<svg width="209" height="76" viewBox="0 0 209 76" fill="none" xmlns="http://www.w3.org/2000/svg">
<circle cx="38" cy="38" r="38" fill="#313131"/>
<g clip-path="url(#clip0_1_27)">
<path d="M21.6736 25.6337C29.3475 23.8302 37.724 24.8607 45.1016 29.1746C52.4791 33.4886 57.4851 40.2833 59.6766 47.8555C60.0865 49.2545 61.5471 50.0705 62.9452 49.6812C64.3432 49.2918 65.1552 47.8376 64.7524 46.4428C62.2056 37.608 56.3588 29.6755 47.7516 24.6426C39.1445 19.6096 29.364 18.4044 20.4126 20.5061C18.9954 20.8463 18.1304 22.26 18.4725 23.6764C18.8146 25.0928 20.2493 25.9697 21.6665 25.6295L21.6736 25.6337ZM38.4764 40.5048C42.5369 42.8791 45.3663 46.5386 46.7521 50.6654C47.2185 52.0499 48.7163 52.8022 50.0993 52.3565C51.4823 51.9109 52.2299 50.419 51.7708 49.0387C49.9942 43.7427 46.3451 39.0243 41.1265 35.9727C35.9079 32.9212 30.0062 32.055 24.5267 33.1081C23.0914 33.3807 22.1692 34.7609 22.4549 36.1918C22.7406 37.6227 24.135 38.5521 25.5702 38.2795C29.8391 37.4593 34.4159 38.1305 38.4836 40.509L38.4764 40.5048ZM36.4265 54.5103C37.8882 52.0106 37.0248 48.7785 34.5013 47.3029C31.9778 45.8273 28.7377 46.66 27.276 49.1597C25.8143 51.6594 26.6777 54.8914 29.2012 56.367C31.7247 57.8426 34.9648 57.01 36.4265 54.5103Z" fill="white"/>
</g>
<path d="M95.9375 39.0156H90.0938L90.0625 35.7969H94.9688C95.8333 35.7969 96.5417 35.6875 97.0938 35.4688C97.6458 35.2396 98.0573 34.9115 98.3281 34.4844C98.6094 34.0469 98.75 33.5156 98.75 32.8906C98.75 32.1823 98.6146 31.6094 98.3438 31.1719C98.0833 30.7344 97.6719 30.4167 97.1094 30.2188C96.5573 30.0208 95.8438 29.9219 94.9688 29.9219H91.7188V49H87.0312V26.25H94.9688C96.2917 26.25 97.474 26.375 98.5156 26.625C99.5677 26.875 100.458 27.2552 101.188 27.7656C101.917 28.276 102.474 28.9219 102.859 29.7031C103.245 30.474 103.438 31.3906 103.438 32.4531C103.438 33.3906 103.224 34.2552 102.797 35.0469C102.38 35.8385 101.719 36.4844 100.812 36.9844C99.9167 37.4844 98.7448 37.7604 97.2969 37.8125L95.9375 39.0156ZM95.7344 49H88.8125L90.6406 45.3438H95.7344C96.5573 45.3438 97.2292 45.2135 97.75 44.9531C98.2708 44.6823 98.6562 44.3177 98.9062 43.8594C99.1562 43.401 99.2812 42.875 99.2812 42.2812C99.2812 41.6146 99.1667 41.0365 98.9375 40.5469C98.7188 40.0573 98.3646 39.6823 97.875 39.4219C97.3854 39.151 96.7396 39.0156 95.9375 39.0156H91.4219L91.4531 35.7969H97.0781L98.1562 37.0625C99.5417 37.0417 100.656 37.2865 101.5 37.7969C102.354 38.2969 102.974 38.9479 103.359 39.75C103.755 40.5521 103.953 41.4115 103.953 42.3281C103.953 43.7865 103.635 45.0156 103 46.0156C102.365 47.0052 101.432 47.75 100.203 48.25C98.9844 48.75 97.4948 49 95.7344 49ZM113.538 32.0938V49H109.022V32.0938H113.538ZM108.741 27.6875C108.741 27.0312 108.97 26.4896 109.428 26.0625C109.886 25.6354 110.501 25.4219 111.272 25.4219C112.032 25.4219 112.642 25.6354 113.1 26.0625C113.569 26.4896 113.803 27.0312 113.803 27.6875C113.803 28.3438 113.569 28.8854 113.1 29.3125C112.642 29.7396 112.032 29.9531 111.272 29.9531C110.501 29.9531 109.886 29.7396 109.428 29.3125C108.97 28.8854 108.741 28.3438 108.741 27.6875ZM123.263 35.7031V49H118.763V32.0938H122.981L123.263 35.7031ZM122.606 39.9531H121.388C121.388 38.7031 121.549 37.5781 121.872 36.5781C122.195 35.5677 122.648 34.7083 123.231 34C123.815 33.2812 124.507 32.7344 125.309 32.3594C126.122 31.974 127.028 31.7812 128.028 31.7812C128.82 31.7812 129.544 31.8958 130.2 32.125C130.856 32.3542 131.419 32.7188 131.888 33.2188C132.367 33.7188 132.731 34.3802 132.981 35.2031C133.242 36.026 133.372 37.0312 133.372 38.2188V49H128.841V38.2031C128.841 37.4531 128.736 36.8698 128.528 36.4531C128.32 36.0365 128.013 35.7448 127.606 35.5781C127.21 35.401 126.721 35.3125 126.138 35.3125C125.533 35.3125 125.007 35.4323 124.559 35.6719C124.122 35.9115 123.757 36.2448 123.466 36.6719C123.184 37.0885 122.971 37.5781 122.825 38.1406C122.679 38.7031 122.606 39.3073 122.606 39.9531ZM137.675 40.7188V40.3906C137.675 39.151 137.852 38.0104 138.206 36.9688C138.56 35.9167 139.076 35.0052 139.753 34.2344C140.43 33.4635 141.264 32.8646 142.253 32.4375C143.243 32 144.378 31.7812 145.659 31.7812C146.941 31.7812 148.081 32 149.081 32.4375C150.081 32.8646 150.92 33.4635 151.597 34.2344C152.284 35.0052 152.805 35.9167 153.159 36.9688C153.514 38.0104 153.691 39.151 153.691 40.3906V40.7188C153.691 41.9479 153.514 43.0885 153.159 44.1406C152.805 45.1823 152.284 46.0938 151.597 46.875C150.92 47.6458 150.086 48.2448 149.097 48.6719C148.107 49.099 146.972 49.3125 145.691 49.3125C144.409 49.3125 143.269 49.099 142.269 48.6719C141.279 48.2448 140.441 47.6458 139.753 46.875C139.076 46.0938 138.56 45.1823 138.206 44.1406C137.852 43.0885 137.675 41.9479 137.675 40.7188ZM142.175 40.3906V40.7188C142.175 41.4271 142.237 42.0885 142.362 42.7031C142.487 43.3177 142.685 43.8594 142.956 44.3281C143.237 44.7865 143.602 45.1458 144.05 45.4062C144.498 45.6667 145.045 45.7969 145.691 45.7969C146.316 45.7969 146.852 45.6667 147.3 45.4062C147.748 45.1458 148.107 44.7865 148.378 44.3281C148.649 43.8594 148.847 43.3177 148.972 42.7031C149.107 42.0885 149.175 41.4271 149.175 40.7188V40.3906C149.175 39.7031 149.107 39.0573 148.972 38.4531C148.847 37.8385 148.644 37.2969 148.362 36.8281C148.092 36.349 147.732 35.974 147.284 35.7031C146.836 35.4323 146.295 35.2969 145.659 35.2969C145.024 35.2969 144.482 35.4323 144.034 35.7031C143.597 35.974 143.237 36.349 142.956 36.8281C142.685 37.2969 142.487 37.8385 142.362 38.4531C142.237 39.0573 142.175 39.7031 142.175 40.3906ZM166.338 32.0938V35.2812H156.494V32.0938H166.338ZM158.931 27.9219H163.431V43.9062C163.431 44.3958 163.494 44.7708 163.619 45.0312C163.754 45.2917 163.952 45.474 164.213 45.5781C164.473 45.6719 164.801 45.7188 165.197 45.7188C165.478 45.7188 165.728 45.7083 165.947 45.6875C166.176 45.6562 166.369 45.625 166.525 45.5938L166.541 48.9062C166.155 49.0312 165.739 49.1302 165.291 49.2031C164.843 49.276 164.348 49.3125 163.806 49.3125C162.817 49.3125 161.952 49.151 161.213 48.8281C160.483 48.4948 159.921 47.9635 159.525 47.2344C159.129 46.5052 158.931 45.5469 158.931 44.3594V27.9219ZM175.25 32.0938V49H170.734V32.0938H175.25ZM170.453 27.6875C170.453 27.0312 170.682 26.4896 171.141 26.0625C171.599 25.6354 172.214 25.4219 172.984 25.4219C173.745 25.4219 174.354 25.6354 174.812 26.0625C175.281 26.4896 175.516 27.0312 175.516 27.6875C175.516 28.3438 175.281 28.8854 174.812 29.3125C174.354 29.7396 173.745 29.9531 172.984 29.9531C172.214 29.9531 171.599 29.7396 171.141 29.3125C170.682 28.8854 170.453 28.3438 170.453 27.6875ZM186.303 49H181.772V30.5938C181.772 29.3125 182.022 28.2344 182.522 27.3594C183.032 26.474 183.746 25.8073 184.662 25.3594C185.59 24.901 186.689 24.6719 187.959 24.6719C188.376 24.6719 188.777 24.7031 189.162 24.7656C189.548 24.8177 189.923 24.8854 190.287 24.9688L190.241 28.3594C190.043 28.3073 189.834 28.2708 189.616 28.25C189.397 28.2292 189.142 28.2188 188.85 28.2188C188.308 28.2188 187.845 28.3125 187.459 28.5C187.084 28.6771 186.798 28.9427 186.6 29.2969C186.402 29.651 186.303 30.0833 186.303 30.5938V49ZM189.678 32.0938V35.2812H179.256V32.0938H189.678ZM198.653 47.0938L203.137 32.0938H207.966L201.169 51.5469C201.023 51.974 200.825 52.4323 200.575 52.9219C200.335 53.4115 200.007 53.875 199.591 54.3125C199.184 54.7604 198.669 55.125 198.044 55.4062C197.429 55.6875 196.674 55.8281 195.778 55.8281C195.351 55.8281 195.002 55.8021 194.731 55.75C194.46 55.6979 194.137 55.625 193.762 55.5312V52.2344C193.877 52.2344 193.997 52.2344 194.122 52.2344C194.247 52.2448 194.367 52.25 194.481 52.25C195.075 52.25 195.559 52.1823 195.934 52.0469C196.309 51.9115 196.611 51.7031 196.841 51.4219C197.07 51.151 197.252 50.7969 197.387 50.3594L198.653 47.0938ZM196.778 32.0938L200.45 44.3438L201.091 49.1094L198.028 49.4375L191.95 32.0938H196.778Z" fill="#313131"/>
<defs>
<clipPath id="clip0_1_27">
<rect width="53" height="42" fill="white" transform="translate(26.2005 9) rotate(30.3164)"/>
</clipPath>
</defs>
</svg>
